<svg width="131" height="36" viewBox="0 0 131 36" xmlns="http://www.w3.org/2000/svg"><defs><clipPath id="satori_bc-id"><path x="0" y="0" width="131" height="36" d="M8,0 h115 a8,8 0 0 1 8,8 v20 a8,8 0 0 1 -8,8 h-115 a8,8 0 0 1 -8,-8 v-20 a8,8 0 0 1 8,-8"/></clipPath></defs><mask id="satori_om-id"><rect x="1" y="1" width="129" height="34" fill="#fff"/><path width="131" height="36" fill="none" stroke="#000" stroke-width="2" d="M2.343,2.343 A8,8 0 0 1 8,0 h115 a8,8 0 0 1 8,8 v20 a8,8 0 0 1 -8,8 h-115 a8,8 0 0 1 -8,-8 v-20 A8,8 0 0 1 2.343,2.343"/></mask><path x="0" y="0" width="131" height="36" fill="#0F1017" d="M8,0 h115 a8,8 0 0 1 8,8 v20 a8,8 0 0 1 -8,8 h-115 a8,8 0 0 1 -8,-8 v-20 a8,8 0 0 1 8,-8"/><path width="131" height="36" clip-path="url(#satori_bc-id)" fill="none" stroke="#1A1C25" stroke-width="2" d="M2.343,2.343 A8,8 0 0 1 8,0 h115 a8,8 0 0 1 8,8 v20 a8,8 0 0 1 -8,8 h-115 a8,8 0 0 1 -8,-8 v-20 A8,8 0 0 1 2.343,2.343"/><clipPath id="satori_cp-id-0"><rect x="13" y="11" width="10" height="15"/></clipPath><mask id="satori_om-id-0"><rect x="13" y="11" width="10" height="15" fill="#fff"/></mask><image x="13" y="11" width="10" height="15" href="data:image/svg+xml;utf8,%3Csvg  preserveAspectRatio=%22none%22 xmlns=%22http://www.w3.org/2000/svg%22 width=%2210%22 height=%2215%22 viewBox=%220 0 50 75%22%3E%3Cpath d=%22M25 19.995C25 20.0375 25 20.0575 25 20.085C25.015 21.34 25.5475 22.6275 26.425 23.525C26.445 23.545 26.4475 23.5475 26.45 23.55C26.485 23.585 26.5025 23.6025 26.54 23.6375C27.4225 24.485 28.6775 25.005 29.9025 25.03C29.9525 25.03 29.9975 25.03 30.0825 25.03H42C44.8 25.03 46.2 25.03 47.27 25.575C48.21 26.055 48.975 26.82 49.455 27.76C50 28.83 50 30.23 50 33.03V42.03C50 44.83 50 46.23 49.455 47.3C48.975 48.24 48.21 49.005 47.27 49.485C46.2 50.03 44.8 50.03 42 50.03H29.9275C28.6425 50.0325 27.3225 50.58 26.4125 51.485C26.4075 51.49 26.4775 51.42 26.45 51.4475C26.445 51.4525 26.4425 51.4525 26.4225 51.475C25.545 52.3725 25.0125 53.6575 24.9975 54.9125C24.9975 54.94 24.9975 54.9625 24.9975 55.0025V67.0575C24.9975 69.8575 24.9975 71.2575 24.4525 72.3275C23.9725 73.2675 23.2075 74.0325 22.2675 74.5125C21.1975 75.0575 19.7975 75.0575 16.9975 75.0575H7.9975C5.1975 75.0575 3.7975 75.0575 2.7275 74.5125C1.7875 74.0325 1.0225 73.2675 0.542498 72.3275C-0.00250244 71.2575 -0.00250244 69.8575 -0.00250244 67.0575V58.0575C-0.00250244 55.2575 -0.00250244 53.8575 0.542498 52.7875C1.0225 51.8475 1.7875 51.0825 2.7275 50.6025C3.7975 50.0575 5.1975 50.0575 7.9975 50.0575H19.7225C19.9 50.0575 19.9875 50.0575 20.08 50.055C21.2475 50.0125 22.4375 49.52 23.295 48.7225C23.3625 48.66 23.4125 48.61 23.5125 48.51C23.55 48.4725 23.5675 48.455 23.6025 48.42C24.455 47.5325 24.9725 46.2825 24.9975 45.0525C24.9975 45.0025 24.9975 44.96 24.9975 44.875V30.12C24.9975 30.0325 24.9975 29.99 24.9975 29.94C24.9725 28.71 24.455 27.46 23.6025 26.575C23.5675 26.54 23.55 26.52 23.5125 26.4825C23.475 26.445 23.4575 26.4275 23.42 26.3925C22.5325 25.54 21.2825 25.0225 20.0525 24.9975C20.0025 24.9975 19.96 24.9975 19.875 24.9975H7.9975C5.1975 24.9975 3.7975 24.9975 2.7275 24.4525C1.7875 23.9725 1.0225 23.2075 0.542498 22.2675C-0.00250244 21.1975 -0.00250244 19.7975 -0.00250244 16.9975V7.9975C-2.44146e-06 5.2 -2.44379e-06 3.8 0.544998 2.73C1.025 1.79 1.79 1.025 2.73 0.545C3.8 0 5.2 0 8 0H17C19.8 0 21.2 0 22.27 0.545C23.21 1.025 23.975 1.79 24.455 2.73C25 3.8 25 5.2 25 8V19.995Z%22 fill=%22%23FF3C00%22%3E%3C/path%3E%3C/svg%3E" preserveAspectRatio="none" transform="matrix(1.00,0.00,0.00,1.00,0.00,-1.00)" clip-path="url(#satori_cp-id-0)" mask="url(#satori_om-id-0)"/><mask id="satori_om-id-0-0"><rect x="13" y="11" width="0" height="15" fill="#fff"/></mask><mask id="satori_om-id-1"><rect x="31" y="9" width="87" height="18" fill="#fff"/></mask><path fill="#E6E8ED" d="M33.8 19.4L33.8 23.3L32.2 23.3L32.2 13.6L36.4 13.6Q37.7 13.6 38.5 14.4Q39.2 15.2 39.2 16.5L39.2 16.5Q39.2 17.6 38.8 18.3Q38.3 19.0 37.3 19.2L37.3 19.2L39.5 23.3L37.7 23.3L35.7 19.4L33.8 19.4ZM33.8 18.1L36.3 18.1Q36.9 18.1 37.2 17.8Q37.6 17.4 37.6 16.9L37.6 16.9L37.6 16.2Q37.6 15.6 37.2 15.3Q36.9 15.0 36.3 15.0L36.3 15.0L33.8 15.0L33.8 18.1ZM45.7 23.3L45.7 22.1L45.6 22.1Q45.5 22.4 45.4 22.7Q45.2 22.9 45.0 23.1Q44.7 23.3 44.4 23.4Q44.0 23.5 43.6 23.5L43.6 23.5Q42.4 23.5 41.8 22.8Q41.2 22.1 41.2 20.7L41.2 20.7L41.2 16.1L42.7 16.1L42.7 20.5Q42.7 22.2 44.1 22.2L44.1 22.2Q44.4 22.2 44.7 22.1Q45.0 22.0 45.2 21.9Q45.4 21.7 45.5 21.5Q45.7 21.3 45.7 20.9L45.7 20.9L45.7 16.1L47.2 16.1L47.2 23.3L45.7 23.3ZM50.9 23.3L49.4 23.3L49.4 16.1L50.9 16.1L50.9 17.3L51.0 17.3Q51.2 16.7 51.7 16.3Q52.2 15.9 53.0 15.9L53.0 15.9Q54.1 15.9 54.8 16.6Q55.4 17.4 55.4 18.7L55.4 18.7L55.4 23.3L53.9 23.3L53.9 18.9Q53.9 17.2 52.5 17.2L52.5 17.2Q52.2 17.2 51.9 17.3Q51.6 17.4 51.4 17.5Q51.2 17.7 51.0 17.9Q50.9 18.2 50.9 18.5L50.9 18.5L50.9 23.3Z M63.7 23.5L63.7 23.5Q62.9 23.5 62.3 23.3Q61.7 23.0 61.2 22.5Q60.8 22.0 60.6 21.3Q60.3 20.6 60.3 19.7L60.3 19.7Q60.3 18.8 60.6 18.1Q60.8 17.4 61.2 16.9Q61.7 16.4 62.3 16.2Q62.9 15.9 63.7 15.9L63.7 15.9Q64.4 15.9 65.0 16.2Q65.7 16.4 66.1 16.9Q66.5 17.4 66.8 18.1Q67.0 18.8 67.0 19.7L67.0 19.7Q67.0 20.6 66.8 21.3Q66.5 22.0 66.1 22.5Q65.7 23.0 65.0 23.3Q64.4 23.5 63.7 23.5ZM63.7 22.3L63.7 22.3Q64.4 22.3 64.9 21.8Q65.4 21.3 65.4 20.3L65.4 20.3L65.4 19.1Q65.4 18.1 64.9 17.6Q64.4 17.2 63.7 17.2L63.7 17.2Q62.9 17.2 62.4 17.6Q61.9 18.1 61.9 19.1L61.9 19.1L61.9 20.3Q61.9 21.3 62.4 21.8Q62.9 22.3 63.7 22.3ZM70.2 23.3L68.7 23.3L68.7 16.1L70.2 16.1L70.2 17.3L70.3 17.3Q70.5 16.7 71.0 16.3Q71.5 15.9 72.3 15.9L72.3 15.9Q73.5 15.9 74.1 16.6Q74.7 17.4 74.7 18.7L74.7 18.7L74.7 23.3L73.2 23.3L73.2 18.9Q73.2 17.2 71.8 17.2L71.8 17.2Q71.5 17.2 71.2 17.3Q70.9 17.4 70.7 17.5Q70.5 17.7 70.4 17.9Q70.2 18.2 70.2 18.5L70.2 18.5L70.2 23.3Z M81.8 19.4L81.8 23.3L80.2 23.3L80.2 13.6L84.5 13.6Q85.8 13.6 86.5 14.4Q87.3 15.2 87.3 16.5L87.3 16.5Q87.3 17.6 86.8 18.3Q86.3 19.0 85.4 19.2L85.4 19.2L87.5 23.3L85.7 23.3L83.8 19.4L81.8 19.4ZM81.8 18.1L84.3 18.1Q84.9 18.1 85.3 17.8Q85.6 17.4 85.6 16.9L85.6 16.9L85.6 16.2Q85.6 15.6 85.3 15.3Q84.9 15.0 84.3 15.0L84.3 15.0L81.8 15.0L81.8 18.1ZM91.9 23.5L91.9 23.5Q91.2 23.5 90.5 23.3Q89.9 23.0 89.5 22.5Q89.1 22.0 88.8 21.3Q88.6 20.6 88.6 19.7L88.6 19.7Q88.6 18.8 88.8 18.1Q89.1 17.4 89.5 16.9Q89.9 16.4 90.5 16.2Q91.2 15.9 91.9 15.9L91.9 15.9Q92.7 15.9 93.3 16.2Q94.0 16.5 94.4 17.0Q94.8 17.5 95.0 18.1Q95.2 18.8 95.2 19.5L95.2 19.5L95.2 20.1L90.2 20.1L90.2 20.3Q90.2 21.2 90.7 21.7Q91.2 22.3 92.1 22.3L92.1 22.3Q92.8 22.3 93.2 22.0Q93.7 21.7 94.0 21.2L94.0 21.2L94.9 22.0Q94.5 22.7 93.7 23.1Q93.0 23.5 91.9 23.5ZM91.9 17.1L91.9 17.1Q91.5 17.1 91.2 17.2Q90.9 17.4 90.7 17.6Q90.4 17.9 90.3 18.2Q90.2 18.6 90.2 19.0L90.2 19.0L90.2 19.1L93.6 19.1L93.6 19.0Q93.6 18.1 93.1 17.6Q92.7 17.1 91.9 17.1ZM96.9 26.1L96.9 16.1L98.4 16.1L98.4 17.3L98.5 17.3Q98.7 16.6 99.2 16.3Q99.8 15.9 100.5 15.9L100.5 15.9Q101.9 15.9 102.7 16.9Q103.4 17.9 103.4 19.7L103.4 19.7Q103.4 21.5 102.7 22.5Q101.9 23.5 100.5 23.5L100.5 23.5Q99.8 23.5 99.2 23.2Q98.7 22.8 98.5 22.1L98.5 22.1L98.4 22.1L98.4 26.1L96.9 26.1ZM100.0 22.2L100.0 22.2Q100.8 22.2 101.3 21.7Q101.8 21.2 101.8 20.3L101.8 20.3L101.8 19.1Q101.8 18.2 101.3 17.7Q100.8 17.2 100.0 17.2L100.0 17.2Q99.3 17.2 98.9 17.6Q98.4 17.9 98.4 18.5L98.4 18.5L98.4 21.0Q98.4 21.5 98.9 21.9Q99.3 22.2 100.0 22.2ZM107.7 23.3L106.7 23.3Q105.9 23.3 105.5 23.0Q105.2 22.6 105.2 21.8L105.2 21.8L105.2 13.0L106.7 13.0L106.7 22.1L107.7 22.1L107.7 23.3ZM109.9 14.8L109.9 14.8Q109.4 14.8 109.2 14.5Q109.0 14.3 109.0 14.0L109.0 14.0L109.0 13.7Q109.0 13.4 109.2 13.2Q109.4 12.9 109.9 12.9L109.9 12.9Q110.4 12.9 110.6 13.2Q110.8 13.4 110.8 13.7L110.8 13.7L110.8 14.0Q110.8 14.3 110.6 14.5Q110.4 14.8 109.9 14.8ZM109.1 23.3L109.1 16.1L110.7 16.1L110.7 23.3L109.1 23.3ZM116.2 23.3L114.9 23.3Q114.1 23.3 113.7 22.9Q113.3 22.5 113.3 21.8L113.3 21.8L113.3 17.3L112.1 17.3L112.1 16.1L112.7 16.1Q113.1 16.1 113.3 15.9Q113.4 15.7 113.4 15.4L113.4 15.4L113.4 14.1L114.8 14.1L114.8 16.1L116.3 16.1L116.3 17.3L114.8 17.3L114.8 22.1L116.2 22.1L116.2 23.3Z " transform="matrix(1.00,0.00,0.00,1.00,0.00,-1.00)"/></svg>